# Created with Anim8or 1.00
# Object "object01":

mtllib GrassBlade.mtl

# Shape "mesh01":
g mesh01
# No. points 109:
v -74.4888 -49.2456 -0.93883
v -74.4908 -46.3675 -0.93683
v -74.4928 -43.4895 -0.93482
v -74.4949 -40.6114 -0.93282
v -74.4969 -37.7333 -0.93081
v -74.4989 -34.8552 -0.92881
v -74.5009 -31.9772 -0.92680
v -74.5029 -29.0991 -0.92480
v -74.5049 -26.221 -0.92279
v -74.6075 -49.2462 -3.00253
v -74.6095 -46.3682 -3.00053
v -74.6115 -43.4901 -2.99852
v -74.6136 -40.612 -2.99652
v -74.6156 -37.734 -2.99451
v -74.6176 -34.8559 -2.99251
v -74.6196 -31.9778 -2.9905
v -74.6216 -29.0997 -2.9885
v -74.6236 -26.2217 -2.98649
v -75.8706 -49.2462 -4.26171
v -75.8726 -46.3682 -4.2597
v -75.8746 -43.4901 -4.2577
v -75.8767 -40.612 -4.25569
v -75.8787 -37.734 -4.25369
v -75.8807 -34.8559 -4.25168
v -75.8827 -31.9778 -4.24968
v -75.8847 -29.0997 -4.24767
v -75.8867 -26.2217 -4.24567
v -77.9397 -49.2456 -4.37897
v -77.9417 -46.3675 -4.37696
v -77.9437 -43.4894 -4.37496
v -77.9457 -40.6114 -4.37295
v -77.9477 -37.7333 -4.37095
v -77.9498 -34.8552 -4.36894
v -77.9518 -31.9772 -4.36694
v -77.9538 -29.0991 -4.36493
v -77.9558 -26.221 -4.36293
v -80.2603 -49.2445 -3.32289
v -80.2623 -46.3664 -3.32089
v -80.2643 -43.4883 -3.31888
v -80.2664 -40.6103 -3.31688
v -80.2684 -37.7322 -3.31487
v -80.2704 -34.8541 -3.31287
v -80.2724 -31.976 -3.31086
v -80.2744 -29.098 -3.30886
v -80.2764 -26.2199 -3.30685
v -82.2107 -49.2432 -1.37645
v -82.2127 -46.3651 -1.37445
v -82.2147 -43.487 -1.37244
v -82.2167 -40.609 -1.37044
v -82.2188 -37.7309 -1.36843
v -82.2208 -34.8528 -1.36643
v -82.2228 -31.9747 -1.36442
v -82.2248 -29.0967 -1.36242
v -82.2268 -26.2186 -1.36041
v -83.2682 -49.2421 0.93880
v -83.2702 -46.364 0.94081
v -83.2722 -43.4859 0.94281
v -83.2742 -40.6078 0.94482
v -83.2763 -37.7298 0.94682
v -83.2783 -34.8517 0.94883
v -83.2803 -31.9736 0.95083
v -83.2823 -29.0956 0.95284
v -83.2843 -26.2175 0.95484
v -83.1495 -49.2414 3.0025
v -83.1515 -46.3633 3.00451
v -83.1535 -43.4853 3.00651
v -83.1555 -40.6072 3.00852
v -83.1576 -37.7291 3.01052
v -83.1596 -34.8511 3.01253
v -83.1616 -31.973 3.01453
v -83.1636 -29.0949 3.01653
v -83.1656 -26.2168 3.01854
v -81.8864 -49.2414 4.26168
v -81.8884 -46.3633 4.26368
v -81.8904 -43.4853 4.26569
v -81.8924 -40.6072 4.26769
v -81.8945 -37.7291 4.2697
v -81.8965 -34.8511 4.2717
v -81.8985 -31.973 4.27371
v -81.9005 -29.0949 4.27571
v -81.9025 -26.2168 4.27772
v -79.8173 -49.2421 4.37894
v -79.8193 -46.364 4.38094
v -79.8214 -43.4859 4.38295
v -79.8234 -40.6079 4.38495
v -79.8254 -37.7298 4.38696
v -79.8274 -34.8517 4.38896
v -79.8294 -31.9736 4.39097
v -79.8314 -29.0956 4.39297
v -79.8335 -26.2175 4.39498
v -77.4967 -49.2432 3.32286
v -77.4987 -46.3651 3.32487
v -77.5007 -43.487 3.32687
v -77.5027 -40.609 3.32888
v -77.5048 -37.7309 3.33088
v -77.5068 -34.8528 3.33288
v -77.5088 -31.9748 3.33489
v -77.5108 -29.0967 3.33689
v -77.5128 -26.2186 3.3389
v -75.5463 -49.2445 1.37642
v -75.5483 -46.3664 1.37843
v -75.5504 -43.4883 1.38043
v -75.5524 -40.6103 1.38244
v -75.5544 -37.7322 1.38444
v -75.5564 -34.8541 1.38645
v -75.5584 -31.9761 1.38845
v -75.5604 -29.098 1.39046
v -75.5625 -26.2199 1.39246
v -78.9141 1.5787 0.03539

# No. normals 230:
vn 0.99835 0.00074 -0.05742
vn 0.99835 0.00074 -0.05742
vn 0.99835 0.00074 -0.05742
vn 0.99835 0.00074 -0.05742
vn 0.99835 0.00074 -0.05742
vn 0.99835 0.00074 -0.05742
vn 0.99835 0.00074 -0.05742
vn 0.99835 0.00074 -0.05742
vn 0.70600 0.00099 -0.70821
vn 0.70600 0.00099 -0.70821
vn 0.70600 0.00099 -0.70821
vn 0.70600 0.00099 -0.70821
vn 0.70600 0.00099 -0.70821
vn 0.70600 0.00099 -0.70821
vn 0.70600 0.00099 -0.70821
vn 0.70600 0.00099 -0.70821
vn 0.05658 0.00074 -0.99840
vn 0.05658 0.00074 -0.99840
vn 0.05658 0.00074 -0.99840
vn 0.05658 0.00074 -0.99840
vn 0.05658 0.00074 -0.99840
vn 0.05658 0.00074 -0.99840
vn 0.05658 0.00074 -0.99840
vn 0.05658 0.00074 -0.99840
vn -0.41421 0.00034 -0.91018
vn -0.41421 0.00034 -0.91018
vn -0.41421 0.00034 -0.91018
vn -0.41421 0.00034 -0.91018
vn -0.41421 0.00034 -0.91018
vn -0.41421 0.00034 -0.91018
vn -0.41421 0.00034 -0.91018
vn -0.41421 0.00034 -0.91018
vn -0.70639 0 -0.70782
vn -0.70639 0 -0.70782
vn -0.70639 0 -0.70782
vn -0.70639 0 -0.70782
vn -0.70639 0 -0.70782
vn -0.70639 0 -0.70782
vn -0.70639 0 -0.70782
vn -0.70639 0 -0.70782
vn -0.90961 -0.00035 -0.41547
vn -0.90961 -0.00035 -0.41547
vn -0.90961 -0.00035 -0.41547
vn -0.90961 -0.00035 -0.41547
vn -0.90961 -0.00035 -0.41547
vn -0.90961 -0.00035 -0.41547
vn -0.90961 -0.00035 -0.41547
vn -0.90961 -0.00035 -0.41547
vn -0.99835 -0.00074 0.05742
vn -0.99835 -0.00074 0.05742
vn -0.99835 -0.00074 0.05742
vn -0.99835 -0.00074 0.05742
vn -0.99835 -0.00074 0.05742
vn -0.99835 -0.00074 0.05742
vn -0.99835 -0.00074 0.05742
vn -0.99835 -0.00074 0.05742
vn -0.70600 -0.00099 0.70821
vn -0.70600 -0.00099 0.70821
vn -0.70600 -0.00099 0.70821
vn -0.70600 -0.00099 0.70821
vn -0.70600 -0.00099 0.70821
vn -0.70600 -0.00099 0.70821
vn -0.70600 -0.00099 0.70821
vn -0.70600 -0.00099 0.70821
vn -0.05658 -0.00074 0.99840
vn -0.05658 -0.00074 0.99840
vn -0.05658 -0.00074 0.99840
vn -0.05658 -0.00074 0.99840
vn -0.05658 -0.00074 0.99840
vn -0.05658 -0.00074 0.99840
vn -0.05658 -0.00074 0.99840
vn -0.05658 -0.00074 0.99840
vn 0.41421 -0.00034 0.91018
vn 0.41421 -0.00034 0.91018
vn 0.41421 -0.00034 0.91018
vn 0.41421 -0.00034 0.91018
vn 0.41421 -0.00034 0.91018
vn 0.41421 -0.00034 0.91018
vn 0.41421 -0.00034 0.91018
vn 0.41421 -0.00034 0.91018
vn 0.70639 0 0.70782
vn 0.70639 0 0.70782
vn 0.70639 0 0.70782
vn 0.70639 0 0.70782
vn 0.70639 0 0.70782
vn 0.70639 0 0.70782
vn 0.70639 0 0.70782
vn 0.70639 0 0.70782
vn 0.90961 0.00035 0.41547
vn 0.90961 0.00035 0.41547
vn 0.90961 0.00035 0.41547
vn 0.90961 0.00035 0.41547
vn 0.90961 0.00035 0.41547
vn 0.90961 0.00035 0.41547
vn 0.90961 0.00035 0.41547
vn 0.90961 0.00035 0.41547
vn -0.00033 -1 0.00033
vn 0.90204 0.12887 0.41196
vn 0.70142 0.11888 0.70276
vn 0.41085 0.12799 0.90267
vn -0.05584 0.15651 0.98610
vn -0.69435 0.18096 0.69652
vn -0.98599 0.15690 0.05666
vn -0.90208 0.12820 -0.41210
vn -0.70134 0.11887 -0.70284
vn -0.41071 0.12865 -0.90264
vn 0.05592 0.15791 -0.98587
vn 0.69411 0.18281 -0.69627
vn 0.98576 0.15830 -0.05675
vn 0.98284 0.00056 0.18444
vn -0.00033 -1 0.00033
vn 0.98284 0.00056 0.18444
vn 0.98284 0.00056 0.18444
vn 0.98284 0.00056 0.18444
vn 0.98284 0.00056 0.18444
vn 0.98284 0.00056 0.18444
vn 0.98284 0.00056 0.18444
vn 0.98284 0.00056 0.18444
vn 0.98007 0.07443 0.18416
vn 0.91219 0.00092 -0.40977
vn -0.00033 -1 0.00033
vn 0.91219 0.00092 -0.40977
vn 0.91219 0.00092 -0.40977
vn 0.91219 0.00092 -0.40977
vn 0.91219 0.00092 -0.40977
vn 0.91219 0.00092 -0.40977
vn 0.91219 0.00092 -0.40977
vn 0.91219 0.00092 -0.40977
vn 0.90848 0.09203 -0.40768
vn 0.40797 0.00092 -0.91300
vn -0.00033 -1 0.00033
vn 0.40797 0.00092 -0.91300
vn 0.40797 0.00092 -0.91300
vn 0.40797 0.00092 -0.91300
vn 0.40797 0.00092 -0.91300
vn 0.40797 0.00092 -0.91300
vn 0.40797 0.00092 -0.91300
vn 0.40797 0.00092 -0.91300
vn 0.40588 0.09189 -0.90930
vn -0.18417 0.00056 -0.98289
vn -0.00033 -1 0.00033
vn -0.18417 0.00056 -0.98289
vn -0.18417 0.00056 -0.98289
vn -0.18417 0.00056 -0.98289
vn -0.18417 0.00056 -0.98289
vn -0.18417 0.00056 -0.98289
vn -0.18417 0.00056 -0.98289
vn -0.18417 0.00056 -0.98289
vn -0.18390 0.07425 -0.98014
vn -0.56936 0.00017 -0.82209
vn -0.00033 -1 0.00033
vn -0.56936 0.00017 -0.82209
vn -0.56936 0.00017 -0.82209
vn -0.56936 0.00017 -0.82209
vn -0.56936 0.00017 -0.82209
vn -0.56936 0.00017 -0.82209
vn -0.56936 0.00017 -0.82209
vn -0.56936 0.00017 -0.82209
vn -0.56825 0.06309 -0.82043
vn -0.82112 -0.00018 -0.57076
vn -0.00033 -1 0.00033
vn -0.82112 -0.00018 -0.57076
vn -0.82112 -0.00018 -0.57076
vn -0.82112 -0.00018 -0.57076
vn -0.82112 -0.00018 -0.57076
vn -0.82112 -0.00018 -0.57076
vn -0.82112 -0.00018 -0.57076
vn -0.82112 -0.00018 -0.57076
vn -0.81945 0.06280 -0.56970
vn -0.98284 -0.00056 -0.18444
vn -0.00033 -1 0.00033
vn -0.98284 -0.00056 -0.18444
vn -0.98284 -0.00056 -0.18444
vn -0.98284 -0.00056 -0.18444
vn -0.98284 -0.00056 -0.18444
vn -0.98284 -0.00056 -0.18444
vn -0.98284 -0.00056 -0.18444
vn -0.98284 -0.00056 -0.18444
vn -0.98015 0.07333 -0.18422
vn -0.91219 -0.00092 0.40977
vn -0.00033 -1 0.00033
vn -0.91219 -0.00092 0.40977
vn -0.91219 -0.00092 0.40977
vn -0.91219 -0.00092 0.40977
vn -0.91219 -0.00092 0.40977
vn -0.91219 -0.00092 0.40977
vn -0.91219 -0.00092 0.40977
vn -0.91219 -0.00092 0.40977
vn -0.90863 0.09023 0.40773
vn -0.40797 -0.00092 0.91300
vn -0.00033 -1 0.00033
vn -0.40797 -0.00092 0.91300
vn -0.40797 -0.00092 0.91300
vn -0.40797 -0.00092 0.91300
vn -0.40797 -0.00092 0.91300
vn -0.40797 -0.00092 0.91300
vn -0.40797 -0.00092 0.91300
vn -0.40797 -0.00092 0.91300
vn -0.40593 0.09009 0.90945
vn 0.18417 -0.00056 0.98289
vn -0.00033 -1 0.00033
vn 0.18417 -0.00056 0.98289
vn 0.18417 -0.00056 0.98289
vn 0.18417 -0.00056 0.98289
vn 0.18417 -0.00056 0.98289
vn 0.18417 -0.00056 0.98289
vn 0.18417 -0.00056 0.98289
vn 0.18417 -0.00056 0.98289
vn 0.18395 0.07316 0.98021
vn 0.56936 -0.00017 0.82209
vn -0.00033 -1 0.00033
vn 0.56936 -0.00017 0.82209
vn 0.56936 -0.00017 0.82209
vn 0.56936 -0.00017 0.82209
vn 0.56936 -0.00017 0.82209
vn 0.56936 -0.00017 0.82209
vn 0.56936 -0.00017 0.82209
vn 0.56936 -0.00017 0.82209
vn 0.56831 0.06274 0.82042
vn 0.82112 0.00018 0.57076
vn -0.00033 -1 0.00033
vn 0.82112 0.00018 0.57076
vn 0.82112 0.00018 0.57076
vn 0.82111 0.00018 0.57076
vn 0.82111 0.00018 0.57076
vn 0.82112 0.00018 0.57076
vn 0.82112 0.00018 0.57076
vn 0.82112 0.00018 0.57076
vn 0.81946 0.06315 0.56965
vn -0.00012 1 0.00011

# No. texture coordinates 117:
vt 0 0
vt 0 0.12500
vt 0 0.25000
vt 0 0.37500
vt 0 0.50000
vt 0 0.62500
vt 0 0.75000
vt 0 0.87500
vt 0 1
vt 0.08333 0
vt 0.08333 0.12500
vt 0.08333 0.25000
vt 0.08333 0.37500
vt 0.08333 0.50000
vt 0.08333 0.62500
vt 0.08333 0.75000
vt 0.08333 0.87500
vt 0.08333 1
vt 0.16667 0
vt 0.16667 0.12500
vt 0.16667 0.25000
vt 0.16667 0.37500
vt 0.16667 0.50000
vt 0.16667 0.62500
vt 0.16667 0.75000
vt 0.16667 0.87500
vt 0.16667 1
vt 0.25000 0
vt 0.25000 0.12500
vt 0.25000 0.25000
vt 0.25000 0.37500
vt 0.25000 0.50000
vt 0.25000 0.62500
vt 0.25000 0.75000
vt 0.25000 0.87500
vt 0.25000 1
vt 0.33333 0
vt 0.33333 0.12500
vt 0.33333 0.25000
vt 0.33333 0.37500
vt 0.33333 0.50000
vt 0.33333 0.62500
vt 0.33333 0.75000
vt 0.33333 0.87500
vt 0.33333 1
vt 0.41667 0
vt 0.41667 0.12500
vt 0.41667 0.25000
vt 0.41667 0.37500
vt 0.41667 0.50000
vt 0.41667 0.62500
vt 0.41667 0.75000
vt 0.41667 0.87500
vt 0.41667 1
vt 0.50000 0
vt 0.50000 0.12500
vt 0.50000 0.25000
vt 0.50000 0.37500
vt 0.50000 0.50000
vt 0.50000 0.62500
vt 0.50000 0.75000
vt 0.50000 0.87500
vt 0.50000 1
vt 0.58333 0
vt 0.58333 0.12500
vt 0.58333 0.25000
vt 0.58333 0.37500
vt 0.58333 0.50000
vt 0.58333 0.62500
vt 0.58333 0.75000
vt 0.58333 0.87500
vt 0.58333 1
vt 0.66667 0
vt 0.66667 0.12500
vt 0.66667 0.25000
vt 0.66667 0.37500
vt 0.66667 0.50000
vt 0.66667 0.62500
vt 0.66667 0.75000
vt 0.66667 0.87500
vt 0.66667 1
vt 0.75000 0
vt 0.75000 0.12500
vt 0.75000 0.25000
vt 0.75000 0.37500
vt 0.75000 0.50000
vt 0.75000 0.62500
vt 0.75000 0.75000
vt 0.75000 0.87500
vt 0.75000 1
vt 0.83333 0
vt 0.83333 0.12500
vt 0.83333 0.25000
vt 0.83333 0.37500
vt 0.83333 0.50000
vt 0.83333 0.62500
vt 0.83333 0.75000
vt 0.83333 0.87500
vt 0.83333 1
vt 0.91667 0
vt 0.91667 0.12500
vt 0.91667 0.25000
vt 0.91667 0.37500
vt 0.91667 0.50000
vt 0.91667 0.62500
vt 0.91667 0.75000
vt 0.91667 0.87500
vt 0.91667 1
vt 1 0
vt 1 0.12500
vt 1 0.25000
vt 1 0.37500
vt 1 0.50000
vt 1 0.62500
vt 1 0.75000
vt 1 0.87500
vt 1 1

# No. faces 109:

usemtl material01

f 11/11/122 2/2/112 1/1/110 10/10/120
f 12/12/123 3/3/113 2/2/112 11/11/122
f 13/13/124 4/4/114 3/3/113 12/12/123
f 14/14/125 5/5/115 4/4/114 13/13/124
f 15/15/126 6/6/116 5/5/115 14/14/125
f 16/16/127 7/7/117 6/6/116 15/15/126
f 17/17/128 8/8/118 7/7/117 16/16/127
f 18/18/129 9/9/119 8/8/118 17/17/128
f 20/20/132 11/11/122 10/10/120 19/19/130
f 21/21/133 12/12/123 11/11/122 20/20/132
f 22/22/134 13/13/124 12/12/123 21/21/133
f 23/23/135 14/14/125 13/13/124 22/22/134
f 24/24/136 15/15/126 14/14/125 23/23/135
f 25/25/137 16/16/127 15/15/126 24/24/136
f 26/26/138 17/17/128 16/16/127 25/25/137
f 27/27/139 18/18/129 17/17/128 26/26/138
f 29/29/142 20/20/132 19/19/130 28/28/140
f 30/30/143 21/21/133 20/20/132 29/29/142
f 31/31/144 22/22/134 21/21/133 30/30/143
f 32/32/145 23/23/135 22/22/134 31/31/144
f 33/33/146 24/24/136 23/23/135 32/32/145
f 34/34/147 25/25/137 24/24/136 33/33/146
f 35/35/148 26/26/138 25/25/137 34/34/147
f 36/36/149 27/27/139 26/26/138 35/35/148
f 38/38/152 29/29/142 28/28/140 37/37/150
f 39/39/153 30/30/143 29/29/142 38/38/152
f 40/40/154 31/31/144 30/30/143 39/39/153
f 41/41/155 32/32/145 31/31/144 40/40/154
f 42/42/156 33/33/146 32/32/145 41/41/155
f 43/43/157 34/34/147 33/33/146 42/42/156
f 44/44/158 35/35/148 34/34/147 43/43/157
f 45/45/159 36/36/149 35/35/148 44/44/158
f 47/47/162 38/38/152 37/37/150 46/46/160
f 48/48/163 39/39/153 38/38/152 47/47/162
f 49/49/164 40/40/154 39/39/153 48/48/163
f 50/50/165 41/41/155 40/40/154 49/49/164
f 51/51/166 42/42/156 41/41/155 50/50/165
f 52/52/167 43/43/157 42/42/156 51/51/166
f 53/53/168 44/44/158 43/43/157 52/52/167
f 54/54/169 45/45/159 44/44/158 53/53/168
f 56/56/172 47/47/162 46/46/160 55/55/170
f 57/57/173 48/48/163 47/47/162 56/56/172
f 58/58/174 49/49/164 48/48/163 57/57/173
f 59/59/175 50/50/165 49/49/164 58/58/174
f 60/60/176 51/51/166 50/50/165 59/59/175
f 61/61/177 52/52/167 51/51/166 60/60/176
f 62/62/178 53/53/168 52/52/167 61/61/177
f 63/63/179 54/54/169 53/53/168 62/62/178
f 65/65/182 56/56/172 55/55/170 64/64/180
f 66/66/183 57/57/173 56/56/172 65/65/182
f 67/67/184 58/58/174 57/57/173 66/66/183
f 68/68/185 59/59/175 58/58/174 67/67/184
f 69/69/186 60/60/176 59/59/175 68/68/185
f 70/70/187 61/61/177 60/60/176 69/69/186
f 71/71/188 62/62/178 61/61/177 70/70/187
f 72/72/189 63/63/179 62/62/178 71/71/188
f 74/74/192 65/65/182 64/64/180 73/73/190
f 75/75/193 66/66/183 65/65/182 74/74/192
f 76/76/194 67/67/184 66/66/183 75/75/193
f 77/77/195 68/68/185 67/67/184 76/76/194
f 78/78/196 69/69/186 68/68/185 77/77/195
f 79/79/197 70/70/187 69/69/186 78/78/196
f 80/80/198 71/71/188 70/70/187 79/79/197
f 81/81/199 72/72/189 71/71/188 80/80/198
f 83/83/202 74/74/192 73/73/190 82/82/200
f 84/84/203 75/75/193 74/74/192 83/83/202
f 85/85/204 76/76/194 75/75/193 84/84/203
f 86/86/205 77/77/195 76/76/194 85/85/204
f 87/87/206 78/78/196 77/77/195 86/86/205
f 88/88/207 79/79/197 78/78/196 87/87/206
f 89/89/208 80/80/198 79/79/197 88/88/207
f 90/90/209 81/81/199 80/80/198 89/89/208
f 92/92/212 83/83/202 82/82/200 91/91/210
f 93/93/213 84/84/203 83/83/202 92/92/212
f 94/94/214 85/85/204 84/84/203 93/93/213
f 95/95/215 86/86/205 85/85/204 94/94/214
f 96/96/216 87/87/206 86/86/205 95/95/215
f 97/97/217 88/88/207 87/87/206 96/96/216
f 98/98/218 89/89/208 88/88/207 97/97/217
f 99/99/219 90/90/209 89/89/208 98/98/218
f 101/101/222 92/92/212 91/91/210 100/100/220
f 102/102/223 93/93/213 92/92/212 101/101/222
f 103/103/224 94/94/214 93/93/213 102/102/223
f 104/104/225 95/95/215 94/94/214 103/103/224
f 105/105/226 96/96/216 95/95/215 104/104/225
f 106/106/227 97/97/217 96/96/216 105/105/226
f 107/107/228 98/98/218 97/97/217 106/106/227
f 108/108/229 99/99/219 98/98/218 107/107/228
f 2/110/112 101/101/222 100/100/220 1/109/110
f 3/111/113 102/102/223 101/101/222 2/110/112
f 4/112/114 103/103/224 102/102/223 3/111/113
f 5/113/115 104/104/225 103/103/224 4/112/114
f 6/114/116 105/105/226 104/104/225 5/113/115
f 7/115/117 106/106/227 105/105/226 6/114/116
f 8/116/118 107/107/228 106/106/227 7/115/117
f 9/117/119 108/108/229 107/107/228 8/116/118
f 100/100/221 91/91/211 82/82/201 73/73/191 64/64/181 55/55/171 46/46/161 37/37/151 28/28/141 19/19/131 10/10/121 1/1/111
f 9//119 109//230 108//229
f 108//229 109//230 99//219
f 99//219 109//230 90//209
f 90//209 109//230 81//199
f 81//199 109//230 72//189
f 72//189 109//230 63//179
f 63//179 109//230 54//169
f 54//169 109//230 45//159
f 45//159 109//230 36//149
f 36//149 109//230 27//139
f 27//139 109//230 18//129
f 18//129 109//230 9//119

# End of Object "object01"
